<svg width="121" height="40" viewBox="0 0 121 40" fill="none" xmlns="http://www.w3.org/2000/svg">
<rect width="121" height="40" rx="20" fill="#FFB1C8"/>
<path d="M24 27V13L35 20L24 27ZM26 23.35L31.25 20L26 16.65V23.35Z" fill="#541D32"/>
<path d="M49.68 26V14.8H54.4C55.5947 14.8 56.6453 15.0347 57.552 15.504C58.4693 15.9733 59.1787 16.6293 59.68 17.472C60.192 18.3147 60.448 19.2907 60.448 20.4C60.448 21.5093 60.192 22.4853 59.68 23.328C59.1787 24.1707 58.4693 24.8267 57.552 25.296C56.6453 25.7653 55.5947 26 54.4 26H49.68ZM51.28 24.608H54.304C55.232 24.608 56.032 24.432 56.704 24.08C57.3867 23.728 57.9147 23.2373 58.288 22.608C58.6613 21.968 58.848 21.232 58.848 20.4C58.848 19.5573 58.6613 18.8213 58.288 18.192C57.9147 17.5627 57.3867 17.072 56.704 16.72C56.032 16.368 55.232 16.192 54.304 16.192H51.28V24.608ZM65.9508 26.096C65.0441 26.096 64.2441 25.9093 63.5508 25.536C62.8681 25.1627 62.3348 24.6507 61.9508 24C61.5774 23.3493 61.3908 22.6027 61.3908 21.76C61.3908 20.9173 61.5721 20.1707 61.9348 19.52C62.3081 18.8693 62.8148 18.3627 63.4548 18C64.1054 17.6267 64.8361 17.44 65.6468 17.44C66.4681 17.44 67.1934 17.6213 67.8228 17.984C68.4521 18.3467 68.9428 18.8587 69.2948 19.52C69.6574 20.1707 69.8388 20.9333 69.8388 21.808C69.8388 21.872 69.8334 21.9467 69.8228 22.032C69.8228 22.1173 69.8174 22.1973 69.8068 22.272H62.5908V21.168H69.0068L68.3828 21.552C68.3934 21.008 68.2814 20.5227 68.0468 20.096C67.8121 19.6693 67.4868 19.3387 67.0708 19.104C66.6654 18.8587 66.1908 18.736 65.6468 18.736C65.1134 18.736 64.6388 18.8587 64.2228 19.104C63.8068 19.3387 63.4814 19.6747 63.2468 20.112C63.0121 20.5387 62.8948 21.0293 62.8948 21.584V21.84C62.8948 22.4053 63.0228 22.912 63.2788 23.36C63.5454 23.7973 63.9134 24.1387 64.3828 24.384C64.8521 24.6293 65.3908 24.752 65.9988 24.752C66.5001 24.752 66.9534 24.6667 67.3588 24.496C67.7748 24.3253 68.1374 24.0693 68.4468 23.728L69.2948 24.72C68.9108 25.168 68.4308 25.5093 67.8548 25.744C67.2894 25.9787 66.6548 26.096 65.9508 26.096ZM82.0796 17.44C82.7623 17.44 83.365 17.5733 83.8876 17.84C84.4103 18.1067 84.8156 18.512 85.1036 19.056C85.4023 19.6 85.5516 20.288 85.5516 21.12V26H84.0156V21.296C84.0156 20.4747 83.8236 19.856 83.4396 19.44C83.0556 19.024 82.517 18.816 81.8236 18.816C81.3116 18.816 80.8636 18.9227 80.4796 19.136C80.0956 19.3493 79.797 19.664 79.5836 20.08C79.381 20.496 79.2796 21.0133 79.2796 21.632V26H77.7436V21.296C77.7436 20.4747 77.5516 19.856 77.1676 19.44C76.7943 19.024 76.2556 18.816 75.5516 18.816C75.0503 18.816 74.6076 18.9227 74.2236 19.136C73.8396 19.3493 73.541 19.664 73.3276 20.08C73.1143 20.496 73.0076 21.0133 73.0076 21.632V26H71.4716V17.52H72.9436V19.776L72.7036 19.2C72.9703 18.6453 73.381 18.2133 73.9356 17.904C74.4903 17.5947 75.1356 17.44 75.8716 17.44C76.6823 17.44 77.381 17.6427 77.9676 18.048C78.5543 18.4427 78.9383 19.0453 79.1196 19.856L78.4956 19.6C78.7516 18.9493 79.1996 18.4267 79.8396 18.032C80.4796 17.6373 81.2263 17.44 82.0796 17.44ZM91.5099 26.096C90.6565 26.096 89.8992 25.9093 89.2379 25.536C88.5765 25.1627 88.0539 24.6507 87.6699 24C87.2859 23.3387 87.0939 22.592 87.0939 21.76C87.0939 20.9173 87.2859 20.1707 87.6699 19.52C88.0539 18.8693 88.5765 18.3627 89.2379 18C89.8992 17.6267 90.6565 17.44 91.5099 17.44C92.3525 17.44 93.1045 17.6267 93.7659 18C94.4379 18.3627 94.9605 18.8693 95.3339 19.52C95.7179 20.16 95.9099 20.9067 95.9099 21.76C95.9099 22.6027 95.7179 23.3493 95.3339 24C94.9605 24.6507 94.4379 25.1627 93.7659 25.536C93.1045 25.9093 92.3525 26.096 91.5099 26.096ZM91.5099 24.752C92.0539 24.752 92.5392 24.6293 92.9659 24.384C93.4032 24.1387 93.7445 23.792 93.9899 23.344C94.2352 22.8853 94.3579 22.3573 94.3579 21.76C94.3579 21.152 94.2352 20.6293 93.9899 20.192C93.7445 19.744 93.4032 19.3973 92.9659 19.152C92.5392 18.9067 92.0539 18.784 91.5099 18.784C90.9659 18.784 90.4805 18.9067 90.0539 19.152C89.6272 19.3973 89.2859 19.744 89.0299 20.192C88.7739 20.6293 88.6459 21.152 88.6459 21.76C88.6459 22.3573 88.7739 22.8853 89.0299 23.344C89.2859 23.792 89.6272 24.1387 90.0539 24.384C90.4805 24.6293 90.9659 24.752 91.5099 24.752Z" fill="#541D32"/>
</svg>
