<svg width="820" height="420" viewBox="0 0 820 420" fill="none" xmlns="http://www.w3.org/2000/svg">
<g clip-path="url(#clip0_770_41)">
<rect width="820" height="420" fill="#191113"/>
<path d="M706 58C706 43.6406 717.641 32 732 32H762C776.359 32 788 43.6406 788 58C788 72.3594 776.359 84 762 84H732C717.641 84 706 72.3594 706 58Z" fill="#FF8A00"/>
<path d="M721.856 64L726.848 52.8H729.408L734.416 64H731.696L727.6 54.112H728.624L724.512 64H721.856ZM724.352 61.6L725.04 59.632H730.8L731.504 61.6H724.352ZM735.402 64V52.128H737.898V64H735.402ZM745.303 64.128C744.577 64.128 743.943 63.968 743.399 63.648C742.855 63.328 742.428 62.8427 742.119 62.192C741.82 61.5307 741.671 60.6987 741.671 59.696C741.671 58.6827 741.815 57.8507 742.103 57.2C742.391 56.5493 742.807 56.064 743.351 55.744C743.895 55.424 744.545 55.264 745.303 55.264C746.113 55.264 746.839 55.4507 747.479 55.824C748.129 56.1867 748.641 56.6987 749.015 57.36C749.399 58.0213 749.591 58.8 749.591 59.696C749.591 60.6027 749.399 61.3867 749.015 62.048C748.641 62.7093 748.129 63.2213 747.479 63.584C746.839 63.9467 746.113 64.128 745.303 64.128ZM740.215 67.104V55.392H742.599V57.152L742.551 59.712L742.711 62.256V67.104H740.215ZM744.871 62.08C745.287 62.08 745.655 61.984 745.975 61.792C746.305 61.6 746.567 61.328 746.759 60.976C746.961 60.6133 747.062 60.1867 747.062 59.696C747.062 59.1947 746.961 58.768 746.759 58.416C746.567 58.064 746.305 57.792 745.975 57.6C745.655 57.408 745.287 57.312 744.871 57.312C744.455 57.312 744.081 57.408 743.751 57.6C743.42 57.792 743.159 58.064 742.967 58.416C742.775 58.768 742.679 59.1947 742.679 59.696C742.679 60.1867 742.775 60.6133 742.967 60.976C743.159 61.328 743.42 61.6 743.751 61.792C744.081 61.984 744.455 62.08 744.871 62.08ZM756.493 55.264C757.176 55.264 757.784 55.4027 758.317 55.68C758.861 55.9467 759.288 56.3627 759.597 56.928C759.907 57.4827 760.061 58.1973 760.061 59.072V64H757.565V59.456C757.565 58.7627 757.411 58.2507 757.101 57.92C756.803 57.5893 756.376 57.424 755.821 57.424C755.427 57.424 755.069 57.5093 754.749 57.68C754.44 57.84 754.195 58.0907 754.013 58.432C753.843 58.7733 753.757 59.2107 753.757 59.744V64H751.261V52.128H753.757V57.776L753.197 57.056C753.507 56.48 753.949 56.0373 754.525 55.728C755.101 55.4187 755.757 55.264 756.493 55.264ZM767.604 64V62.32L767.444 61.952V58.944C767.444 58.4107 767.279 57.9947 766.948 57.696C766.628 57.3973 766.132 57.248 765.46 57.248C765.001 57.248 764.548 57.3227 764.1 57.472C763.663 57.6107 763.289 57.8027 762.98 58.048L762.084 56.304C762.553 55.9733 763.119 55.7173 763.78 55.536C764.441 55.3547 765.113 55.264 765.796 55.264C767.108 55.264 768.127 55.5733 768.852 56.192C769.577 56.8107 769.94 57.776 769.94 59.088V64H767.604ZM764.98 64.128C764.308 64.128 763.732 64.016 763.252 63.792C762.772 63.5573 762.404 63.2427 762.148 62.848C761.892 62.4533 761.764 62.0107 761.764 61.52C761.764 61.008 761.887 60.56 762.132 60.176C762.388 59.792 762.788 59.4933 763.332 59.28C763.876 59.056 764.585 58.944 765.46 58.944H767.748V60.4H765.732C765.145 60.4 764.74 60.496 764.516 60.688C764.303 60.88 764.196 61.12 764.196 61.408C764.196 61.728 764.319 61.984 764.564 62.176C764.82 62.3573 765.167 62.448 765.604 62.448C766.02 62.448 766.393 62.352 766.724 62.16C767.055 61.9573 767.295 61.664 767.444 61.28L767.828 62.432C767.647 62.9867 767.316 63.408 766.836 63.696C766.356 63.984 765.737 64.128 764.98 64.128Z" fill="white"/>
<path d="M0 0H405C422.673 0 437 14.3269 437 32V388C437 405.673 422.673 420 405 420H0V0Z" fill="#703349"/>
<path d="M42.464 79L31.616 53.176H39.344L48.368 75.4H44.528L53.888 53.176H61.088L50.192 79H42.464ZM76.2564 79.384C73.3124 79.384 70.7204 78.808 68.4804 77.656C66.2724 76.504 64.5604 74.936 63.3444 72.952C62.1284 70.936 61.5204 68.648 61.5204 66.088C61.5204 63.496 62.1124 61.208 63.2964 59.224C64.5124 57.208 66.1604 55.64 68.2404 54.52C70.3204 53.368 72.6724 52.792 75.2964 52.792C77.8244 52.792 80.0964 53.336 82.1124 54.424C84.1604 55.48 85.7764 57.016 86.9604 59.032C88.1444 61.016 88.7364 63.4 88.7364 66.184C88.7364 66.472 88.7204 66.808 88.6884 67.192C88.6564 67.544 88.6244 67.88 88.5924 68.2H67.6164V63.832H84.6564L81.7764 65.128C81.7764 63.784 81.5044 62.616 80.9604 61.624C80.4164 60.632 79.6644 59.864 78.7044 59.32C77.7444 58.744 76.6244 58.456 75.3444 58.456C74.0644 58.456 72.9284 58.744 71.9364 59.32C70.9764 59.864 70.2244 60.648 69.6804 61.672C69.1364 62.664 68.8644 63.848 68.8644 65.224V66.376C68.8644 67.784 69.1684 69.032 69.7764 70.12C70.4164 71.176 71.2964 71.992 72.4164 72.568C73.5684 73.112 74.9124 73.384 76.4484 73.384C77.8244 73.384 79.0244 73.176 80.0484 72.76C81.1044 72.344 82.0644 71.72 82.9284 70.888L86.9124 75.208C85.7284 76.552 84.2404 77.592 82.4484 78.328C80.6564 79.032 78.5924 79.384 76.2564 79.384ZM93.7216 79V53.176H100.874V60.472L99.8656 58.36C100.634 56.536 101.866 55.16 103.562 54.232C105.258 53.272 107.322 52.792 109.754 52.792V59.704C109.434 59.672 109.146 59.656 108.89 59.656C108.634 59.624 108.362 59.608 108.074 59.608C106.026 59.608 104.362 60.2 103.082 61.384C101.834 62.536 101.21 64.344 101.21 66.808V79H93.7216ZM123.082 79.384C120.874 79.384 118.746 79.128 116.698 78.616C114.682 78.072 113.082 77.4 111.898 76.6L114.394 71.224C115.578 71.96 116.97 72.568 118.57 73.048C120.202 73.496 121.802 73.72 123.37 73.72C125.098 73.72 126.314 73.512 127.018 73.096C127.754 72.68 128.122 72.104 128.122 71.368C128.122 70.76 127.834 70.312 127.258 70.024C126.714 69.704 125.978 69.464 125.049 69.304C124.122 69.144 123.098 68.984 121.978 68.824C120.89 68.664 119.786 68.456 118.666 68.2C117.546 67.912 116.522 67.496 115.594 66.952C114.666 66.408 113.914 65.672 113.338 64.744C112.794 63.816 112.521 62.616 112.521 61.144C112.521 59.512 112.986 58.072 113.914 56.824C114.874 55.576 116.25 54.6 118.042 53.896C119.834 53.16 121.978 52.792 124.474 52.792C126.234 52.792 128.026 52.984 129.85 53.368C131.674 53.752 133.194 54.312 134.41 55.048L131.914 60.376C130.666 59.64 129.402 59.144 128.122 58.888C126.874 58.6 125.658 58.456 124.474 58.456C122.81 58.456 121.594 58.68 120.826 59.128C120.058 59.576 119.674 60.152 119.674 60.856C119.674 61.496 119.946 61.976 120.49 62.296C121.066 62.616 121.818 62.872 122.746 63.064C123.674 63.256 124.682 63.432 125.77 63.592C126.89 63.72 128.01 63.928 129.13 64.216C130.25 64.504 131.258 64.92 132.154 65.464C133.082 65.976 133.834 66.696 134.41 67.624C134.986 68.52 135.274 69.704 135.274 71.176C135.274 72.776 134.794 74.2 133.834 75.448C132.874 76.664 131.482 77.624 129.658 78.328C127.866 79.032 125.674 79.384 123.082 79.384ZM139.894 79V53.176H147.382V79H139.894ZM143.638 49.576C142.262 49.576 141.142 49.176 140.278 48.376C139.414 47.576 138.982 46.584 138.982 45.4C138.982 44.216 139.414 43.224 140.278 42.424C141.142 41.624 142.262 41.224 143.638 41.224C145.014 41.224 146.134 41.608 146.998 42.376C147.862 43.112 148.294 44.072 148.294 45.256C148.294 46.504 147.862 47.544 146.998 48.376C146.166 49.176 145.046 49.576 143.638 49.576ZM166.619 79.384C163.867 79.384 161.419 78.808 159.275 77.656C157.163 76.504 155.483 74.936 154.235 72.952C153.019 70.936 152.411 68.648 152.411 66.088C152.411 63.496 153.019 61.208 154.235 59.224C155.483 57.208 157.163 55.64 159.275 54.52C161.419 53.368 163.867 52.792 166.619 52.792C169.339 52.792 171.771 53.368 173.915 54.52C176.059 55.64 177.739 57.192 178.955 59.176C180.171 61.16 180.779 63.464 180.779 66.088C180.779 68.648 180.171 70.936 178.955 72.952C177.739 74.936 176.059 76.504 173.915 77.656C171.771 78.808 169.339 79.384 166.619 79.384ZM166.619 73.24C167.867 73.24 168.987 72.952 169.979 72.376C170.971 71.8 171.755 70.984 172.331 69.928C172.907 68.84 173.195 67.56 173.195 66.088C173.195 64.584 172.907 63.304 172.331 62.248C171.755 61.192 170.971 60.376 169.979 59.8C168.987 59.224 167.867 58.936 166.619 58.936C165.371 58.936 164.251 59.224 163.259 59.8C162.267 60.376 161.467 61.192 160.859 62.248C160.283 63.304 159.995 64.584 159.995 66.088C159.995 67.56 160.283 68.84 160.859 69.928C161.467 70.984 162.267 71.8 163.259 72.376C164.251 72.952 165.371 73.24 166.619 73.24ZM201.48 52.792C203.528 52.792 205.352 53.208 206.952 54.04C208.584 54.84 209.864 56.088 210.792 57.784C211.72 59.448 212.184 61.592 212.184 64.216V79H204.696V65.368C204.696 63.288 204.232 61.752 203.304 60.76C202.408 59.768 201.128 59.272 199.464 59.272C198.28 59.272 197.208 59.528 196.248 60.04C195.32 60.52 194.584 61.272 194.04 62.296C193.528 63.32 193.272 64.632 193.272 66.232V79H185.784V53.176H192.936V60.328L191.592 58.168C192.52 56.44 193.848 55.112 195.576 54.184C197.304 53.256 199.272 52.792 201.48 52.792Z" fill="#FFD9E2"/>
<path d="M49.9946 125.584C49.6106 125.584 49.2506 125.496 48.9146 125.32C48.5786 125.128 48.3066 124.864 48.0986 124.528C47.9066 124.192 47.8106 123.808 47.8106 123.376C47.8106 122.96 47.9066 122.592 48.0986 122.272C48.3066 121.936 48.5786 121.672 48.9146 121.48C49.2506 121.288 49.6106 121.192 49.9946 121.192C50.3946 121.192 50.7546 121.288 51.0746 121.48C51.4106 121.672 51.6746 121.936 51.8666 122.272C52.0586 122.592 52.1546 122.96 52.1546 123.376C52.1546 123.808 52.0586 124.192 51.8666 124.528C51.6746 124.864 51.4106 125.128 51.0746 125.32C50.7546 125.496 50.3946 125.584 49.9946 125.584ZM72.68 121.144H81.344V123.208H72.68V121.144ZM72.92 130H70.52V113.2H82.376V115.288H72.92V130ZM90.6839 130.144C89.3239 130.144 88.1239 129.864 87.0839 129.304C86.0599 128.744 85.2599 127.976 84.6839 127C84.1239 126.024 83.8439 124.904 83.8439 123.64C83.8439 122.376 84.1159 121.256 84.6599 120.28C85.2199 119.304 85.9799 118.544 86.9399 118C87.9159 117.44 89.0119 117.16 90.2279 117.16C91.4599 117.16 92.5479 117.432 93.4919 117.976C94.4359 118.52 95.1719 119.288 95.6999 120.28C96.2439 121.256 96.5159 122.4 96.5159 123.712C96.5159 123.808 96.5079 123.92 96.4919 124.048C96.4919 124.176 96.4839 124.296 96.4679 124.408H85.6439V122.752H95.2679L94.3319 123.328C94.3479 122.512 94.1799 121.784 93.8279 121.144C93.4759 120.504 92.9879 120.008 92.3639 119.656C91.7559 119.288 91.0439 119.104 90.2279 119.104C89.4279 119.104 88.7159 119.288 88.0919 119.656C87.4679 120.008 86.9799 120.512 86.6279 121.168C86.2759 121.808 86.0999 122.544 86.0999 123.376V123.76C86.0999 124.608 86.2919 125.368 86.6759 126.04C87.0759 126.696 87.6279 127.208 88.3319 127.576C89.0359 127.944 89.8439 128.128 90.7559 128.128C91.5079 128.128 92.1879 128 92.7959 127.744C93.4199 127.488 93.9639 127.104 94.4279 126.592L95.6999 128.08C95.1239 128.752 94.4039 129.264 93.5399 129.616C92.6919 129.968 91.7399 130.144 90.6839 130.144ZM107.26 130V127.312L107.14 126.808V122.224C107.14 121.248 106.852 120.496 106.276 119.968C105.716 119.424 104.868 119.152 103.732 119.152C102.98 119.152 102.244 119.28 101.524 119.536C100.804 119.776 100.196 120.104 99.6997 120.52L98.7397 118.792C99.3957 118.264 100.18 117.864 101.092 117.592C102.02 117.304 102.988 117.16 103.996 117.16C105.74 117.16 107.084 117.584 108.028 118.432C108.972 119.28 109.444 120.576 109.444 122.32V130H107.26ZM103.084 130.144C102.14 130.144 101.308 129.984 100.588 129.664C99.8837 129.344 99.3397 128.904 98.9557 128.344C98.5717 127.768 98.3797 127.12 98.3797 126.4C98.3797 125.712 98.5397 125.088 98.8597 124.528C99.1957 123.968 99.7317 123.52 100.468 123.184C101.22 122.848 102.228 122.68 103.492 122.68H107.524V124.336H103.588C102.436 124.336 101.66 124.528 101.26 124.912C100.86 125.296 100.66 125.76 100.66 126.304C100.66 126.928 100.908 127.432 101.404 127.816C101.9 128.184 102.588 128.368 103.468 128.368C104.332 128.368 105.084 128.176 105.724 127.792C106.38 127.408 106.852 126.848 107.14 126.112L107.596 127.696C107.292 128.448 106.756 129.048 105.988 129.496C105.22 129.928 104.252 130.144 103.084 130.144ZM118.075 130.144C116.795 130.144 115.803 129.8 115.099 129.112C114.395 128.424 114.043 127.44 114.043 126.16V114.496H116.347V126.064C116.347 126.752 116.515 127.28 116.851 127.648C117.203 128.016 117.699 128.2 118.339 128.2C119.059 128.2 119.659 128 120.139 127.6L120.859 129.256C120.507 129.56 120.083 129.784 119.587 129.928C119.107 130.072 118.603 130.144 118.075 130.144ZM111.883 119.176V117.28H119.995V119.176H111.883ZM128.997 130.144C127.909 130.144 126.949 129.944 126.117 129.544C125.301 129.144 124.661 128.536 124.197 127.72C123.749 126.888 123.525 125.848 123.525 124.6V117.28H125.829V124.336C125.829 125.584 126.125 126.52 126.717 127.144C127.325 127.768 128.173 128.08 129.261 128.08C130.061 128.08 130.757 127.92 131.349 127.6C131.941 127.264 132.397 126.784 132.717 126.16C133.037 125.52 133.197 124.752 133.197 123.856V117.28H135.501V130H133.317V126.568L133.677 127.48C133.261 128.328 132.637 128.984 131.805 129.448C130.973 129.912 130.037 130.144 128.997 130.144ZM139.887 130V117.28H142.095V120.736L141.879 119.872C142.231 118.992 142.823 118.32 143.655 117.856C144.487 117.392 145.511 117.16 146.727 117.16V119.392C146.631 119.376 146.535 119.368 146.439 119.368C146.359 119.368 146.279 119.368 146.199 119.368C144.967 119.368 143.991 119.736 143.271 120.472C142.551 121.208 142.191 122.272 142.191 123.664V130H139.887ZM155.114 130.144C153.754 130.144 152.554 129.864 151.514 129.304C150.49 128.744 149.69 127.976 149.114 127C148.554 126.024 148.274 124.904 148.274 123.64C148.274 122.376 148.546 121.256 149.09 120.28C149.65 119.304 150.41 118.544 151.37 118C152.346 117.44 153.442 117.16 154.658 117.16C155.89 117.16 156.978 117.432 157.922 117.976C158.866 118.52 159.602 119.288 160.13 120.28C160.674 121.256 160.946 122.4 160.946 123.712C160.946 123.808 160.938 123.92 160.922 124.048C160.922 124.176 160.914 124.296 160.898 124.408H150.074V122.752H159.698L158.762 123.328C158.778 122.512 158.61 121.784 158.258 121.144C157.906 120.504 157.418 120.008 156.794 119.656C156.186 119.288 155.474 119.104 154.658 119.104C153.858 119.104 153.146 119.288 152.522 119.656C151.898 120.008 151.41 120.512 151.058 121.168C150.706 121.808 150.53 122.544 150.53 123.376V123.76C150.53 124.608 150.722 125.368 151.106 126.04C151.506 126.696 152.058 127.208 152.762 127.576C153.466 127.944 154.274 128.128 155.186 128.128C155.938 128.128 156.618 128 157.226 127.744C157.85 127.488 158.394 127.104 158.858 126.592L160.13 128.08C159.554 128.752 158.834 129.264 157.97 129.616C157.122 129.968 156.17 130.144 155.114 130.144Z" fill="#FFD9E2"/>
</g>
<defs>
<clipPath id="clip0_770_41">
<rect width="820" height="420" fill="white"/>
</clipPath>
</defs>
</svg>
